<svg width="283" height="40" viewBox="0 0 283 40" fill="none" xmlns="http://www.w3.org/2000/svg">
<rect x="0.5" y="0.5" width="134" height="39" rx="4.5" stroke="white"/>
<path d="M68.136 21.7511C65.784 21.7511 63.867 23.5401 63.867 26.0041C63.867 28.4531 65.784 30.2571 68.136 30.2571C70.489 30.2571 72.406 28.4531 72.406 26.0041C72.405 23.5401 70.488 21.7511 68.136 21.7511ZM68.136 28.5831C66.847 28.5831 65.736 27.5201 65.736 26.0051C65.736 24.4741 66.848 23.4271 68.136 23.4271C69.425 23.4271 70.536 24.4741 70.536 26.0051C70.536 27.5191 69.425 28.5831 68.136 28.5831ZM58.822 21.7511C56.47 21.7511 54.553 23.5401 54.553 26.0041C54.553 28.4531 56.47 30.2571 58.822 30.2571C61.175 30.2571 63.092 28.4531 63.092 26.0041C63.092 23.5401 61.175 21.7511 58.822 21.7511ZM58.822 28.5831C57.533 28.5831 56.422 27.5201 56.422 26.0051C56.422 24.4741 57.534 23.4271 58.822 23.4271C60.111 23.4271 61.222 24.4741 61.222 26.0051C61.223 27.5191 60.111 28.5831 58.822 28.5831ZM47.744 23.0571V24.8611H52.062C51.933 25.8761 51.595 26.6171 51.079 27.1321C50.451 27.7601 49.468 28.4531 47.744 28.4531C45.086 28.4531 43.008 26.3101 43.008 23.6521C43.008 20.9941 45.086 18.8511 47.744 18.8511C49.178 18.8511 50.225 19.4151 50.998 20.1401L52.271 18.8671C51.191 17.8361 49.758 17.0471 47.744 17.0471C44.103 17.0471 41.042 20.0111 41.042 23.6521C41.042 27.2931 44.103 30.2571 47.744 30.2571C49.709 30.2571 51.192 29.6121 52.351 28.4041C53.543 27.2121 53.914 25.5361 53.914 24.1831C53.914 23.7651 53.882 23.3781 53.817 23.0561H47.744V23.0571ZM93.052 24.4581C92.698 23.5081 91.618 21.7511 89.411 21.7511C87.22 21.7511 85.399 23.4751 85.399 26.0041C85.399 28.3881 87.204 30.2571 89.62 30.2571C91.569 30.2571 92.697 29.0651 93.165 28.3721L91.715 27.4051C91.232 28.1141 90.571 28.5811 89.62 28.5811C88.67 28.5811 87.993 28.1461 87.558 27.2921L93.245 24.9401L93.052 24.4581ZM87.252 25.8761C87.204 24.2321 88.525 23.3951 89.476 23.3951C90.217 23.3951 90.845 23.7661 91.055 24.2971L87.252 25.8761ZM82.629 30.0001H84.497V17.4991H82.629V30.0001ZM79.567 22.7021H79.503C79.084 22.2021 78.278 21.7511 77.264 21.7511C75.137 21.7511 73.188 23.6201 73.188 26.0211C73.188 28.4051 75.137 30.2581 77.264 30.2581C78.279 30.2581 79.084 29.8071 79.503 29.2921H79.567V29.9041C79.567 31.5311 78.697 32.4011 77.296 32.4011C76.152 32.4011 75.443 31.5801 75.153 30.8871L73.526 31.5641C73.993 32.6911 75.233 34.0771 77.296 34.0771C79.487 34.0771 81.34 32.7881 81.34 29.6461V22.0101H79.568V22.7021H79.567ZM77.425 28.5831C76.136 28.5831 75.057 27.5031 75.057 26.0211C75.057 24.5221 76.136 23.4271 77.425 23.4271C78.697 23.4271 79.696 24.5221 79.696 26.0211C79.696 27.5031 78.697 28.5831 77.425 28.5831ZM101.806 17.4991H97.335V30.0001H99.2V25.2641H101.805C103.873 25.2641 105.907 23.7671 105.907 21.3821C105.907 18.9971 103.874 17.4991 101.806 17.4991ZM101.854 23.5241H99.2V19.2391H101.854C103.249 19.2391 104.041 20.3941 104.041 21.3821C104.041 22.3501 103.249 23.5241 101.854 23.5241ZM113.386 21.7291C112.035 21.7291 110.636 22.3241 110.057 23.6431L111.713 24.3341C112.067 23.6431 112.727 23.4171 113.418 23.4171C114.383 23.4171 115.364 23.9961 115.38 25.0251V25.1541C115.042 24.9611 114.318 24.6721 113.434 24.6721C111.649 24.6721 109.831 25.6531 109.831 27.4861C109.831 29.1591 111.295 30.2361 112.935 30.2361C114.189 30.2361 114.881 29.6731 115.315 29.0131H115.379V29.9781H117.181V25.1851C117.182 22.9671 115.524 21.7291 113.386 21.7291ZM113.16 28.5801C112.55 28.5801 111.697 28.2741 111.697 27.5181C111.697 26.5531 112.759 26.1831 113.676 26.1831C114.495 26.1831 114.882 26.3601 115.38 26.6011C115.235 27.7601 114.238 28.5801 113.16 28.5801ZM123.743 22.0021L121.604 27.4221H121.54L119.32 22.0021H117.31L120.639 29.5771L118.741 33.7911H120.687L125.818 22.0021H123.743ZM106.937 30.0001H108.802V17.4991H106.937V30.0001Z" fill="white"/>
<path d="M47.418 10.2429C47.418 11.0809 47.1701 11.7479 46.673 12.2459C46.109 12.8379 45.3731 13.1339 44.4691 13.1339C43.6031 13.1339 42.8661 12.8339 42.2611 12.2339C41.6551 11.6329 41.3521 10.8889 41.3521 10.0009C41.3521 9.11194 41.6551 8.36794 42.2611 7.76794C42.8661 7.16694 43.6031 6.86694 44.4691 6.86694C44.8991 6.86694 45.3101 6.95094 45.7001 7.11794C46.0911 7.28594 46.404 7.50894 46.6381 7.78794L46.111 8.31594C45.714 7.84094 45.167 7.60394 44.468 7.60394C43.836 7.60394 43.29 7.82594 42.829 8.26994C42.368 8.71394 42.1381 9.29094 42.1381 9.99994C42.1381 10.7089 42.368 11.2859 42.829 11.7299C43.29 12.1739 43.836 12.3959 44.468 12.3959C45.138 12.3959 45.6971 12.1729 46.1441 11.7259C46.4341 11.4349 46.602 11.0299 46.647 10.5109H44.468V9.78994H47.375C47.405 9.94694 47.418 10.0979 47.418 10.2429Z" fill="white"/>
<path d="M52.0281 7.737H49.2961V9.639H51.7601V10.36H49.2961V12.262H52.0281V13H48.5251V7H52.0281V7.737Z" fill="white"/>
<path d="M55.279 13H54.508V7.737H52.832V7H56.955V7.737H55.279V13Z" fill="white"/>
<path d="M59.938 13V7H60.709V13H59.938Z" fill="white"/>
<path d="M64.1281 13H63.3572V7.737H61.6812V7H65.8042V7.737H64.1281V13Z" fill="white"/>
<path d="M73.6089 12.225C73.0189 12.831 72.2859 13.134 71.4089 13.134C70.5319 13.134 69.7989 12.831 69.2099 12.225C68.6199 11.619 68.3259 10.877 68.3259 9.99999C68.3259 9.12299 68.6199 8.38099 69.2099 7.77499C69.7989 7.16899 70.5319 6.86499 71.4089 6.86499C72.2809 6.86499 73.0129 7.16999 73.6049 7.77899C74.1969 8.38799 74.4929 9.12799 74.4929 9.99999C74.4929 10.877 74.1979 11.619 73.6089 12.225ZM69.7789 11.722C70.2229 12.172 70.7659 12.396 71.4089 12.396C72.0519 12.396 72.5959 12.171 73.0389 11.722C73.4829 11.272 73.7059 10.698 73.7059 9.99999C73.7059 9.30199 73.4829 8.72799 73.0389 8.27799C72.5959 7.82799 72.0519 7.60399 71.4089 7.60399C70.7659 7.60399 70.2229 7.82899 69.7789 8.27799C69.3359 8.72799 69.1129 9.30199 69.1129 9.99999C69.1129 10.698 69.3359 11.272 69.7789 11.722Z" fill="white"/>
<path d="M75.5749 13V7H76.513L79.429 11.667H79.4619L79.429 10.511V7H80.1999V13H79.3949L76.344 8.106H76.3109L76.344 9.262V13H75.5749Z" fill="white"/>
<path d="M47.418 10.2429C47.418 11.0809 47.1701 11.7479 46.673 12.2459C46.109 12.8379 45.3731 13.1339 44.4691 13.1339C43.6031 13.1339 42.8661 12.8339 42.2611 12.2339C41.6551 11.6329 41.3521 10.8889 41.3521 10.0009C41.3521 9.11194 41.6551 8.36794 42.2611 7.76794C42.8661 7.16694 43.6031 6.86694 44.4691 6.86694C44.8991 6.86694 45.3101 6.95094 45.7001 7.11794C46.0911 7.28594 46.404 7.50894 46.6381 7.78794L46.111 8.31594C45.714 7.84094 45.167 7.60394 44.468 7.60394C43.836 7.60394 43.29 7.82594 42.829 8.26994C42.368 8.71394 42.1381 9.29094 42.1381 9.99994C42.1381 10.7089 42.368 11.2859 42.829 11.7299C43.29 12.1739 43.836 12.3959 44.468 12.3959C45.138 12.3959 45.6971 12.1729 46.1441 11.7259C46.4341 11.4349 46.602 11.0299 46.647 10.5109H44.468V9.78994H47.375C47.405 9.94694 47.418 10.0979 47.418 10.2429Z" stroke="white" stroke-width="0.2" stroke-miterlimit="10"/>
<path d="M52.0281 7.737H49.2961V9.639H51.7601V10.36H49.2961V12.262H52.0281V13H48.5251V7H52.0281V7.737Z" stroke="white" stroke-width="0.2" stroke-miterlimit="10"/>
<path d="M55.279 13H54.508V7.737H52.832V7H56.955V7.737H55.279V13Z" stroke="white" stroke-width="0.2" stroke-miterlimit="10"/>
<path d="M59.938 13V7H60.709V13H59.938Z" stroke="white" stroke-width="0.2" stroke-miterlimit="10"/>
<path d="M64.1281 13H63.3572V7.737H61.6812V7H65.8042V7.737H64.1281V13Z" stroke="white" stroke-width="0.2" stroke-miterlimit="10"/>
<path d="M73.6089 12.225C73.0189 12.831 72.2859 13.134 71.4089 13.134C70.5319 13.134 69.7989 12.831 69.2099 12.225C68.6199 11.619 68.3259 10.877 68.3259 9.99999C68.3259 9.12299 68.6199 8.38099 69.2099 7.77499C69.7989 7.16899 70.5319 6.86499 71.4089 6.86499C72.2809 6.86499 73.0129 7.16999 73.6049 7.77899C74.1969 8.38799 74.4929 9.12799 74.4929 9.99999C74.4929 10.877 74.1979 11.619 73.6089 12.225ZM69.7789 11.722C70.2229 12.172 70.7659 12.396 71.4089 12.396C72.0519 12.396 72.5959 12.171 73.0389 11.722C73.4829 11.272 73.7059 10.698 73.7059 9.99999C73.7059 9.30199 73.4829 8.72799 73.0389 8.27799C72.5959 7.82799 72.0519 7.60399 71.4089 7.60399C70.7659 7.60399 70.2229 7.82899 69.7789 8.27799C69.3359 8.72799 69.1129 9.30199 69.1129 9.99999C69.1129 10.698 69.3359 11.272 69.7789 11.722Z" stroke="white" stroke-width="0.2" stroke-miterlimit="10"/>
<path d="M75.5749 13V7H76.513L79.429 11.667H79.4619L79.429 10.511V7H80.1999V13H79.3949L76.344 8.106H76.3109L76.344 9.262V13H75.5749Z" stroke="white" stroke-width="0.2" stroke-miterlimit="10"/>
<path fill-rule="evenodd" clip-rule="evenodd" d="M10.1564 7.96641C10.0382 8.23391 9.97299 8.56168 9.97299 8.94294V31.0589C9.97299 31.441 10.0383 31.7687 10.1565 32.0361L22.1904 20.0005L10.1564 7.96641ZM10.8514 32.7554C11.2975 32.9463 11.8794 32.8858 12.514 32.5259L26.6711 24.4812L22.8975 20.7076L10.8514 32.7554ZM27.5736 23.9694L32.015 21.4459C33.412 20.6509 33.412 19.3519 32.015 18.5579L27.5714 16.033L23.6046 20.0004L27.5736 23.9694ZM26.6696 15.5206L12.514 7.47694C11.8795 7.11637 11.2976 7.0562 10.8515 7.24734L22.8975 19.2933L26.6696 15.5206Z" fill="white"/>
<rect x="163.5" y="0.5" width="119" height="39" rx="6.5" stroke="white"/>
<path d="M244.526 19.201V21.492H243.09V22.9944H244.526V28.0994C244.526 29.8426 245.314 30.5398 247.298 30.5398C247.647 30.5398 247.979 30.4983 248.27 30.4485V28.9627C248.021 28.9876 247.863 29.0042 247.589 29.0042C246.701 29.0042 246.311 28.5892 246.311 27.6429V22.9944H248.27V21.492H246.311V19.201H244.526Z" fill="white"/>
<path d="M253.323 30.6644C255.963 30.6644 257.582 28.8963 257.582 25.9661C257.582 23.0525 255.955 21.2762 253.323 21.2762C250.684 21.2762 249.057 23.0525 249.057 25.9661C249.057 28.8963 250.675 30.6644 253.323 30.6644ZM253.323 29.0789C251.771 29.0789 250.9 27.9417 250.9 25.9661C250.9 24.0071 251.771 22.8616 253.323 22.8616C254.867 22.8616 255.747 24.0071 255.747 25.9661C255.747 27.9334 254.867 29.0789 253.323 29.0789Z" fill="white"/>
<path d="M258.967 30.49H260.751V25.1526C260.751 23.8826 261.706 23.0276 263.059 23.0276C263.374 23.0276 263.906 23.0857 264.055 23.1356V21.3758C263.864 21.326 263.524 21.3011 263.258 21.3011C262.079 21.3011 261.075 21.9485 260.818 22.8367H260.685V21.4505H258.967V30.49Z" fill="white"/>
<path d="M268.486 22.7952C269.806 22.7952 270.669 23.7166 270.711 25.136H266.145C266.245 23.7249 267.166 22.7952 268.486 22.7952ZM270.703 28.0496C270.371 28.7552 269.632 29.1453 268.553 29.1453C267.125 29.1453 266.204 28.1409 266.145 26.5555V26.4559H272.529V25.8333C272.529 22.9944 271.01 21.2762 268.495 21.2762C265.946 21.2762 264.328 23.1107 264.328 25.9993C264.328 28.888 265.913 30.6644 268.503 30.6644C270.57 30.6644 272.014 29.6683 272.421 28.0496H270.703Z" fill="white"/>
<path d="M232.822 27.1519C232.96 29.3716 234.81 30.7912 237.563 30.7912C240.505 30.7912 242.346 29.3028 242.346 26.9282C242.346 25.0612 241.297 24.0288 238.75 23.4352L237.382 23.0996C235.765 22.7211 235.111 22.2135 235.111 21.3273C235.111 20.2088 236.126 19.4775 237.649 19.4775C239.094 19.4775 240.092 20.1916 240.273 21.3359H242.149C242.037 19.2452 240.196 17.774 237.675 17.774C234.965 17.774 233.158 19.2452 233.158 21.4564C233.158 23.2803 234.182 24.3643 236.427 24.8892L238.027 25.2763C239.671 25.6635 240.393 26.2313 240.393 27.1777C240.393 28.2789 239.258 29.0791 237.709 29.0791C236.049 29.0791 234.896 28.3306 234.732 27.1519H232.822Z" fill="white"/>
<path d="M214.335 21.3011C213.106 21.3011 212.044 21.9153 211.496 22.9446H211.363V21.4505H209.645V33.4949H211.43V29.1204H211.571C212.044 30.075 213.065 30.6395 214.352 30.6395C216.634 30.6395 218.087 28.8382 218.087 25.9661C218.087 23.094 216.634 21.3011 214.335 21.3011ZM213.829 29.0374C212.334 29.0374 211.396 27.8587 211.396 25.9744C211.396 24.0818 212.334 22.9031 213.837 22.9031C215.348 22.9031 216.252 24.0569 216.252 25.9661C216.252 27.8836 215.348 29.0374 213.829 29.0374Z" fill="white"/>
<path d="M224.332 21.3011C223.103 21.3011 222.041 21.9153 221.493 22.9446H221.36V21.4505H219.642V33.4949H221.426V29.1204H221.568C222.041 30.075 223.062 30.6395 224.348 30.6395C226.631 30.6395 228.084 28.8382 228.084 25.9661C228.084 23.094 226.631 21.3011 224.332 21.3011ZM223.825 29.0374C222.331 29.0374 221.393 27.8587 221.393 25.9744C221.393 24.0818 222.331 22.9031 223.834 22.9031C225.344 22.9031 226.249 24.0569 226.249 25.9661C226.249 27.8836 225.344 29.0374 223.825 29.0374Z" fill="white"/>
<path d="M206.443 30.49H208.491L204.008 18.0752H201.935L197.452 30.49H199.431L200.575 27.1949H205.307L206.443 30.49ZM202.873 20.3293H203.019L204.817 25.5774H201.066L202.873 20.3293Z" fill="white"/>
<path d="M198.651 8.71094V14.7H200.813C202.598 14.7 203.632 13.6001 203.632 11.6868C203.632 9.80249 202.59 8.71094 200.813 8.71094H198.651ZM199.581 9.55762H200.71C201.951 9.55762 202.685 10.3462 202.685 11.6992C202.685 13.073 201.963 13.8533 200.71 13.8533H199.581V9.55762Z" fill="white"/>
<path d="M206.797 14.7871C208.117 14.7871 208.926 13.9031 208.926 12.438C208.926 10.9812 208.112 10.093 206.797 10.093C205.477 10.093 204.663 10.9812 204.663 12.438C204.663 13.9031 205.473 14.7871 206.797 14.7871ZM206.797 13.9944C206.021 13.9944 205.585 13.4258 205.585 12.438C205.585 11.4585 206.021 10.8857 206.797 10.8857C207.569 10.8857 208.009 11.4585 208.009 12.438C208.009 13.4216 207.569 13.9944 206.797 13.9944Z" fill="white"/>
<path d="M215.818 10.1802H214.926L214.12 13.6292H214.05L213.12 10.1802H212.265L211.336 13.6292H211.269L210.46 10.1802H209.555L210.8 14.7H211.717L212.647 11.3713H212.718L213.651 14.7H214.577L215.818 10.1802Z" fill="white"/>
<path d="M216.846 14.7H217.738V12.0562C217.738 11.3506 218.157 10.9106 218.817 10.9106C219.477 10.9106 219.792 11.2717 219.792 11.998V14.7H220.685V11.7739C220.685 10.699 220.129 10.093 219.12 10.093C218.439 10.093 217.991 10.396 217.771 10.8982H217.705V10.1802H216.846V14.7Z" fill="white"/>
<path d="M222.09 14.7H222.982V8.41626H222.09V14.7Z" fill="white"/>
<path d="M226.338 14.7871C227.658 14.7871 228.468 13.9031 228.468 12.438C228.468 10.9812 227.654 10.093 226.338 10.093C225.019 10.093 224.205 10.9812 224.205 12.438C224.205 13.9031 225.014 14.7871 226.338 14.7871ZM226.338 13.9944C225.562 13.9944 225.126 13.4258 225.126 12.438C225.126 11.4585 225.562 10.8857 226.338 10.8857C227.11 10.8857 227.55 11.4585 227.55 12.438C227.55 13.4216 227.11 13.9944 226.338 13.9944Z" fill="white"/>
<path d="M231.126 14.0234C230.641 14.0234 230.288 13.7869 230.288 13.3801C230.288 12.9817 230.57 12.77 231.193 12.7285L232.297 12.658V13.0356C232.297 13.5959 231.799 14.0234 231.126 14.0234ZM230.898 14.7747C231.492 14.7747 231.985 14.5173 232.255 14.0649H232.326V14.7H233.185V11.6121C233.185 10.6575 232.546 10.093 231.413 10.093C230.387 10.093 229.657 10.5911 229.566 11.3672H230.429C230.529 11.0476 230.873 10.865 231.371 10.865C231.981 10.865 232.297 11.1348 232.297 11.6121V12.0022L231.072 12.0728C229.997 12.1392 229.391 12.6082 229.391 13.4216C229.391 14.2476 230.026 14.7747 230.898 14.7747Z" fill="white"/>
<path d="M236.213 14.7747C236.836 14.7747 237.363 14.48 237.632 13.9861H237.703V14.7H238.558V8.41626H237.666V10.8982H237.599C237.354 10.4001 236.831 10.1055 236.213 10.1055C235.072 10.1055 234.337 11.0103 234.337 12.438C234.337 13.8699 235.063 14.7747 236.213 14.7747ZM236.466 10.9065C237.213 10.9065 237.682 11.5 237.682 12.4421C237.682 13.3884 237.217 13.9736 236.466 13.9736C235.711 13.9736 235.258 13.3967 235.258 12.438C235.258 11.4875 235.715 10.9065 236.466 10.9065Z" fill="white"/>
<path d="M244.344 14.7871C245.664 14.7871 246.474 13.9031 246.474 12.438C246.474 10.9812 245.66 10.093 244.344 10.093C243.025 10.093 242.211 10.9812 242.211 12.438C242.211 13.9031 243.02 14.7871 244.344 14.7871ZM244.344 13.9944C243.568 13.9944 243.133 13.4258 243.133 12.438C243.133 11.4585 243.568 10.8857 244.344 10.8857C245.116 10.8857 245.556 11.4585 245.556 12.438C245.556 13.4216 245.116 13.9944 244.344 13.9944Z" fill="white"/>
<path d="M247.655 14.7H248.547V12.0562C248.547 11.3506 248.966 10.9106 249.626 10.9106C250.286 10.9106 250.602 11.2717 250.602 11.998V14.7H251.494V11.7739C251.494 10.699 250.938 10.093 249.929 10.093C249.249 10.093 248.8 10.396 248.58 10.8982H248.514V10.1802H247.655V14.7Z" fill="white"/>
<path d="M255.604 9.05542V10.2009H254.886V10.9521H255.604V13.5046C255.604 14.3762 255.998 14.7249 256.99 14.7249C257.164 14.7249 257.33 14.7041 257.475 14.6792V13.9363C257.351 13.9487 257.272 13.957 257.135 13.957C256.691 13.957 256.496 13.7495 256.496 13.2764V10.9521H257.475V10.2009H256.496V9.05542H255.604Z" fill="white"/>
<path d="M258.673 14.7H259.566V12.0603C259.566 11.3755 259.972 10.9148 260.703 10.9148C261.334 10.9148 261.67 11.28 261.67 12.0022V14.7H262.562V11.7822C262.562 10.7073 261.969 10.0972 261.006 10.0972C260.325 10.0972 259.848 10.4001 259.628 10.9065H259.557V8.41626H258.673V14.7Z" fill="white"/>
<path d="M265.781 10.8525C266.441 10.8525 266.873 11.3132 266.894 12.0229H264.611C264.661 11.3174 265.121 10.8525 265.781 10.8525ZM266.889 13.4797C266.723 13.8325 266.354 14.0276 265.814 14.0276C265.101 14.0276 264.64 13.5254 264.611 12.7327V12.6829H267.802V12.3716C267.802 10.9521 267.043 10.093 265.785 10.093C264.511 10.093 263.702 11.0103 263.702 12.4546C263.702 13.8989 264.495 14.7871 265.789 14.7871C266.823 14.7871 267.545 14.2891 267.748 13.4797H266.889Z" fill="white"/>
<path d="M187.769 20.3008C187.791 18.6198 188.693 17.0292 190.126 16.1488C189.222 14.8584 187.709 14.0403 186.134 13.9911C184.455 13.8148 182.827 14.9959 181.971 14.9959C181.099 14.9959 179.782 14.0086 178.363 14.0378C176.514 14.0975 174.79 15.1489 173.89 16.7656C171.956 20.1141 173.399 25.0351 175.251 27.7417C176.178 29.0671 177.261 30.5475 178.679 30.495C180.066 30.4375 180.584 29.6105 182.258 29.6105C183.917 29.6105 184.403 30.495 185.849 30.4616C187.338 30.4375 188.275 29.1304 189.17 27.7925C189.836 26.8481 190.348 25.8044 190.688 24.7C188.939 23.9602 187.771 22.2 187.769 20.3008Z" fill="white"/>
<path d="M185.037 12.2111C185.849 11.2369 186.249 9.98469 186.152 8.72046C184.912 8.85068 183.767 9.44324 182.944 10.3801C182.14 11.2954 181.721 12.5255 181.801 13.7415C183.041 13.7542 184.26 13.1777 185.037 12.2111Z" fill="white"/>
</svg>
