<svg width="72" height="72" viewBox="0 0 72 72" fill="none" xmlns="http://www.w3.org/2000/svg">
<path d="M68.7624 63.99L46.7326 41.9445L46.691 41.9861C50.4943 36.99 52.2574 30.7355 51.6236 24.4885C50.9897 18.2415 48.0063 12.4687 43.277 8.33824C38.5477 4.20782 32.4259 2.02836 26.1504 2.24096C19.875 2.45356 13.9147 5.04233 9.47576 9.48336C5.03686 13.9244 2.45094 19.8859 2.24135 26.1615C2.03176 32.437 4.21415 38.5578 8.34684 43.2851C12.4795 48.0124 18.2538 50.9931 24.5011 51.624C30.7484 52.2548 37.002 50.4887 41.9964 46.683L41.9615 46.7179L63.9879 68.76C64.6207 69.3931 65.4791 69.7489 66.3743 69.7492C67.2695 69.7494 68.1281 69.394 68.7612 68.7611C69.3944 68.1283 69.7502 67.2699 69.7504 66.3747C69.7506 65.4795 69.3952 64.6209 68.7624 63.9878V63.99ZM27.0001 45C23.44 45 19.9599 43.9443 16.9998 41.9665C14.0398 39.9886 11.7327 37.1774 10.3703 33.8883C9.0079 30.5992 8.65144 26.98 9.34597 23.4884C10.0405 19.9967 11.7548 16.7894 14.2722 14.2721C16.7895 11.7547 19.9968 10.0404 23.4885 9.34587C26.9801 8.65133 30.5993 9.00779 33.8884 10.3702C37.1775 11.7325 39.9887 14.0397 41.9666 16.9997C43.9444 19.9598 45.0001 23.4399 45.0001 27C44.9995 31.7737 43.1029 36.3517 39.7274 39.7273C36.3518 43.1028 31.7738 44.9994 27.0001 45Z" fill="#10375C"/>
</svg>
